<?xml version="1.0" encoding="UTF-8"?>
<svg id="Layer_1" data-name="Layer 1" xmlns="http://www.w3.org/2000/svg" viewBox="0 0 640.77 281.44">
  <defs>
    <style>
      .cls-1 {
        font-size: 66.17px;
      }

      .cls-1, .cls-2, .cls-3 {
        fill: #fff;
        font-family: HandelGothic, 'Handel Gothic';
      }

      .cls-2 {
        font-size: 36.76px;
      }

      .cls-3 {
        font-size: 11.05px;
      }

      .cls-4 {
        fill: #dfb672;
        fill-rule: evenodd;
      }
    </style>
  </defs>
  <g>
    <path class="cls-4" d="M140.96,120.72v-18.79h-12.37v60.08l-6.41,3.7v-70.2h31.63v25.21h-12.86ZM118.95,174.95l18.98-10.92v7.47l-25.39,14.44-6.43-3.71v-86.73h12.84v79.45h0ZM74.53,161.08c-3.11-4.72-3.27-11.02-3.27-11.02v-54.56h31.65v25.21h-6.43v-18.79h-12.37v60.37l12.37,7.17v-35.91h-4.81l-3.9-3.21,3.9-3.2h11.24v53.24l-18.8-10.84s-6.28-3.45-9.59-8.47h0ZM140.96,133.56h-4.81l-3.9-3.21,3.9-3.2h17.67v22.92s-.16,6.7-3.15,11.29c-3.41,5.23-9.7,8.43-9.7,8.43h0s0-36.22,0-36.22h0Z"/>
    <g>
      <text class="cls-1" transform="translate(166.28 144.88)"><tspan x="0" y="0">GUARDIAN</tspan></text>
      <text class="cls-2" transform="translate(170.26 180.6)"><tspan x="0" y="0">LITIGATION GROUP</tspan></text>
    </g>
  </g>
  <text class="cls-3" transform="translate(1216.12 1106.67) rotate(-66.99)"><tspan x="0" y="0">G</tspan></text>
  <text class="cls-3" transform="translate(1219.22 1099.32) rotate(-59.8)"><tspan x="0" y="0">U</tspan></text>
  <text class="cls-3" transform="translate(1223.39 1092.16) rotate(-52.72)"><tspan x="0" y="0">A</tspan></text>
  <text class="cls-3" transform="translate(1228.08 1085.97) rotate(-45.77)"><tspan x="0" y="0">R</tspan></text>
  <text class="cls-3" transform="translate(1233.69 1080.17) rotate(-38.59)"><tspan x="0" y="0">D</tspan></text>
  <text class="cls-3" transform="translate(1240.29 1075.04) rotate(-33.48)"><tspan x="0" y="0">I</tspan></text>
  <text class="cls-3" transform="translate(1242.96 1073.15) rotate(-28.58)"><tspan x="0" y="0">A</tspan></text>
  <text class="cls-3" transform="translate(1249.77 1069.41) rotate(-21.41)"><tspan x="0" y="0">N</tspan></text>
  <text class="cls-3" transform="translate(1257.65 1066.42) rotate(-15.83)"><tspan x="0" y="0"> </tspan></text>
  <text class="cls-3" transform="translate(1261.6 1065.25) rotate(-11.34)"><tspan x="0" y="0">L</tspan></text>
  <text class="cls-3" transform="translate(1267.54 1064.11) rotate(-7.2)"><tspan x="0" y="0">I</tspan></text>
  <text class="cls-3" transform="translate(1270.76 1063.63) rotate(-2.83)"><tspan x="0" y="0">T</tspan></text>
  <text class="cls-3" transform="translate(1277.46 1063.36) rotate(1.5)"><tspan x="0" y="0">I</tspan></text>
  <text class="cls-3" transform="translate(1280.73 1063.34) rotate(6.45)"><tspan x="0" y="0">G</tspan></text>
  <text class="cls-3" transform="translate(1288.66 1064.23) rotate(13.42)"><tspan x="0" y="0">A</tspan></text>
  <text class="cls-3" transform="translate(1296.23 1066.06) rotate(19.84)"><tspan x="0" y="0">T</tspan></text>
  <text class="cls-3" transform="translate(1302.52 1068.39) rotate(24.28)"><tspan x="0" y="0">I</tspan></text>
  <text class="cls-3" transform="translate(1305.52 1069.61) rotate(29.42)"><tspan x="0" y="0">O</tspan></text>
  <text class="cls-3" transform="translate(1312.79 1073.69) rotate(36.79)"><tspan x="0" y="0">N</tspan></text>
  <text class="cls-3" transform="translate(1319.49 1078.82) rotate(42.31)"><tspan x="0" y="0"> </tspan></text>
  <text class="cls-3" transform="translate(1322.59 1081.51) rotate(47.63)"><tspan x="0" y="0">G</tspan></text>
  <text class="cls-3" transform="translate(1327.99 1087.41) rotate(54.69)"><tspan x="0" y="0">R</tspan></text>
  <text class="cls-3" transform="translate(1332.67 1093.98) rotate(61.92)"><tspan x="0" y="0">O</tspan></text>
  <text class="cls-3" transform="translate(1336.6 1101.31) rotate(69.27)"><tspan x="0" y="0">U</tspan></text>
  <text class="cls-3" transform="translate(1339.53 1109.06) rotate(76.51)"><tspan x="0" y="0">P</tspan></text>
</svg>