<?xml version="1.0" encoding="UTF-8"?>
<svg id="Layer_1" data-name="Layer 1" xmlns="http://www.w3.org/2000/svg" viewBox="0 0 302.98 305.6">
  <defs>
    <style>
      .cls-1 {
        font-family: HandelGothic, 'Handel Gothic';
        font-size: 10px;
      }

      .cls-1, .cls-2 {
        fill: #fff;
      }

      .cls-3 {
        fill: #dfb672;
      }

      .cls-3, .cls-2 {
        fill-rule: evenodd;
      }
    </style>
  </defs>
  <text class="cls-1" transform="translate(-1287 335.14) rotate(38.35)"><tspan x="0" y="0">E</tspan></text>
  <text class="cls-1" transform="translate(-1281.32 339.63) rotate(32.57)"><tspan x="0" y="0">S</tspan></text>
  <text class="cls-1" transform="translate(-1274.56 343.89) rotate(27.02)"><tspan x="0" y="0">T</tspan></text>
  <text class="cls-1" transform="translate(-1268.64 346.91) rotate(21.59)"><tspan x="0" y="0">A</tspan></text>
  <text class="cls-1" transform="translate(-1261.49 349.72) rotate(15.61)"><tspan x="0" y="0">B</tspan></text>
  <text class="cls-1" transform="translate(-1253.79 351.8) rotate(10.28)"><tspan x="0" y="0">L</tspan></text>
  <text class="cls-1" transform="translate(-1248.04 352.8) rotate(6.75)"><tspan x="0" y="0">I</tspan></text>
  <text class="cls-1" transform="translate(-1244.65 353.27) rotate(2.43)"><tspan x="0" y="0">S</tspan></text>
  <text class="cls-1" transform="translate(-1236.62 353.58) rotate(-3.6)"><tspan x="0" y="0">H</tspan></text>
  <text class="cls-1" transform="translate(-1228.89 353.06) rotate(-9.33)"><tspan x="0" y="0">E</tspan></text>
  <text class="cls-1" transform="translate(-1221.75 351.88) rotate(-15.22)"><tspan x="0" y="0">D</tspan></text>
  <text class="cls-1" transform="translate(-1214 349.68) rotate(-19.9)"><tspan x="0" y="0"> </tspan></text>
  <text class="cls-1" transform="translate(-1210.02 348.28) rotate(-24.22)"><tspan x="0" y="0">2</tspan></text>
  <text class="cls-1" transform="translate(-1203.37 345.29) rotate(-30.1)"><tspan x="0" y="0">0</tspan></text>
  <text class="cls-1" transform="translate(-1196.45 341.16) rotate(-34.27)"><tspan x="0" y="0">1</tspan></text>
  <text class="cls-1" transform="translate(-1193.97 339.55) rotate(-38.3)"><tspan x="0" y="0">8</tspan></text>
  <path class="cls-3" d="M202.55,116.86v-33.77h-22.22v107.94l-11.52,6.65v-126.12h56.83v45.3h-23.1ZM163.01,214.3l34.09-19.62v13.42l-45.61,25.94-11.55-6.66V71.57h23.07v142.73h0ZM83.2,189.37c-5.59-8.48-5.87-19.79-5.87-19.79v-98.01h56.86v45.3h-11.55v-33.77h-22.22v108.46l22.22,12.89v-64.52h-8.65l-7.01-5.77,7.01-5.75h20.19v95.65l-33.78-19.48s-11.28-6.21-17.22-15.22h0ZM202.55,139.93h-8.65l-7.01-5.77,7.01-5.75h31.74v41.17s-.3,12.04-5.66,20.27c-6.13,9.4-17.43,15.14-17.43,15.14h0s0-65.07,0-65.07h0Z"/>
  <path class="cls-2" d="M630.8,116.86v-33.77h-22.22v107.94l-11.52,6.65v-126.12h56.83v45.3h-23.1ZM591.26,214.3l34.09-19.62v13.42l-45.61,25.94-11.55-6.66V71.57h23.07v142.73h0ZM511.45,189.37c-5.59-8.48-5.87-19.79-5.87-19.79v-98.01h56.86v45.3h-11.55v-33.77h-22.22v108.46l22.22,12.89v-64.52h-8.65l-7.01-5.77,7.01-5.75h20.19v95.65l-33.78-19.48s-11.28-6.21-17.22-15.22h0ZM630.8,139.93h-8.65l-7.01-5.77,7.01-5.75h31.74v41.17s-.3,12.04-5.66,20.27c-6.13,9.4-17.43,15.14-17.43,15.14h0s0-65.07,0-65.07h0Z"/>
</svg>