<?xml version="1.0" encoding="UTF-8"?>
<svg id="Layer_1" data-name="Layer 1" xmlns="http://www.w3.org/2000/svg" version="1.1" viewBox="0 0 640.8 281.4">
  <defs>
    <style>
      .cls-1 {
        fill: #dfb672;
        fill-rule: evenodd;
        stroke-width: 0px;
      }

      .cls-2 {
        fill: #fff;
        font-size: 11.1px;
      }

      .cls-2, .cls-3, .cls-4 {
        font-family: HandelGothic, 'Handel Gothic';
      }

      .cls-2, .cls-3, .cls-4, .cls-5 {
        isolation: isolate;
      }

      .cls-3 {
        font-size: 66.2px;
      }

      .cls-3, .cls-4 {
        fill: #343739;
      }

      .cls-4 {
        font-size: 36.8px;
      }
    </style>
  </defs>
  <g>
    <path class="cls-1" d="M141,120.7v-18.8h-12.4v60.1l-6.4,3.7v-70.2h31.6v25.2h-12.9,0ZM118.9,174.9l19-10.9v7.5l-25.4,14.4-6.4-3.7v-86.7h12.8v79.4h0ZM74.5,161.1c-3.1-4.7-3.3-11-3.3-11v-54.6h31.7v25.2h-6.4v-18.8h-12.4v60.4l12.4,7.2v-35.9h-4.8l-3.9-3.2,3.9-3.2h11.2v53.2l-18.8-10.8s-6.3-3.4-9.6-8.5h0ZM141,133.6h-4.8l-3.9-3.2,3.9-3.2h17.7v22.9s-.2,6.7-3.1,11.3c-3.4,5.2-9.7,8.4-9.7,8.4h0v-36.2h0Z"/>
    <g>
      <g class="cls-5">
        <text class="cls-3" transform="translate(166.3 144.9)"><tspan x="0" y="0">GUARDIAN</tspan></text>
      </g>
      <g class="cls-5">
        <text class="cls-4" transform="translate(170.3 180.6)"><tspan x="0" y="0">LITIGATION GROUP</tspan></text>
      </g>
    </g>
  </g>
  <path class="cls-1" d="M815.9,120.7v-18.8h-12.4v60.1l-6.4,3.7v-70.2h31.6v25.2h-12.9,0ZM793.9,174.9l19-10.9v7.5l-25.4,14.4-6.4-3.7v-86.7h12.8v79.4h0ZM749.5,161.1c-3.1-4.7-3.3-11-3.3-11v-54.6h31.7v25.2h-6.4v-18.8h-12.4v60.4l12.4,7.2v-35.9h-4.8l-3.9-3.2,3.9-3.2h11.2v53.2l-18.8-10.8s-6.3-3.4-9.6-8.5h0ZM815.9,133.6h-4.8l-3.9-3.2,3.9-3.2h17.7v22.9s-.2,6.7-3.2,11.3c-3.4,5.2-9.7,8.4-9.7,8.4h0v-36.2h0Z"/>
  <g class="cls-5">
    <text class="cls-2" transform="translate(1891.1 1106.7) rotate(-67)"><tspan x="0" y="0">G</tspan></text>
  </g>
  <g class="cls-5">
    <text class="cls-2" transform="translate(1894.2 1099.3) rotate(-59.8)"><tspan x="0" y="0">U</tspan></text>
  </g>
  <g class="cls-5">
    <text class="cls-2" transform="translate(1898.3 1092.2) rotate(-52.7)"><tspan x="0" y="0">A</tspan></text>
  </g>
  <g class="cls-5">
    <text class="cls-2" transform="translate(1903 1086) rotate(-45.8)"><tspan x="0" y="0">R</tspan></text>
  </g>
  <g class="cls-5">
    <text class="cls-2" transform="translate(1908.6 1080.2) rotate(-38.6)"><tspan x="0" y="0">D</tspan></text>
  </g>
  <g class="cls-5">
    <text class="cls-2" transform="translate(1915.2 1075) rotate(-33.5)"><tspan x="0" y="0">I</tspan></text>
  </g>
  <g class="cls-5">
    <text class="cls-2" transform="translate(1917.9 1073.2) rotate(-28.6)"><tspan x="0" y="0">A</tspan></text>
  </g>
  <g class="cls-5">
    <text class="cls-2" transform="translate(1924.7 1069.4) rotate(-21.4)"><tspan x="0" y="0">N</tspan></text>
  </g>
  <g class="cls-5">
    <text class="cls-2" transform="translate(1936.6 1065.3) rotate(-11.3)"><tspan x="0" y="0">L</tspan></text>
  </g>
  <g class="cls-5">
    <text class="cls-2" transform="translate(1942.5 1064.1) rotate(-7.2)"><tspan x="0" y="0">I</tspan></text>
  </g>
  <g class="cls-5">
    <text class="cls-2" transform="translate(1945.7 1063.6) rotate(-2.8)"><tspan x="0" y="0">T</tspan></text>
  </g>
  <g class="cls-5">
    <text class="cls-2" transform="translate(1952.4 1063.4) rotate(1.5)"><tspan x="0" y="0">I</tspan></text>
  </g>
  <g class="cls-5">
    <text class="cls-2" transform="translate(1955.7 1063.3) rotate(6.4)"><tspan x="0" y="0">G</tspan></text>
  </g>
  <g class="cls-5">
    <text class="cls-2" transform="translate(1963.6 1064.2) rotate(13.4)"><tspan x="0" y="0">A</tspan></text>
  </g>
  <g class="cls-5">
    <text class="cls-2" transform="translate(1971.2 1066.1) rotate(19.8)"><tspan x="0" y="0">T</tspan></text>
  </g>
  <g class="cls-5">
    <text class="cls-2" transform="translate(1977.5 1068.4) rotate(24.3)"><tspan x="0" y="0">I</tspan></text>
  </g>
  <g class="cls-5">
    <text class="cls-2" transform="translate(1980.5 1069.6) rotate(29.4)"><tspan x="0" y="0">O</tspan></text>
  </g>
  <g class="cls-5">
    <text class="cls-2" transform="translate(1987.7 1073.7) rotate(36.8)"><tspan x="0" y="0">N</tspan></text>
  </g>
  <g class="cls-5">
    <text class="cls-2" transform="translate(1997.5 1081.5) rotate(47.6)"><tspan x="0" y="0">G</tspan></text>
  </g>
  <g class="cls-5">
    <text class="cls-2" transform="translate(2002.9 1087.4) rotate(54.7)"><tspan x="0" y="0">R</tspan></text>
  </g>
  <g class="cls-5">
    <text class="cls-2" transform="translate(2007.6 1094) rotate(61.9)"><tspan x="0" y="0">O</tspan></text>
  </g>
  <g class="cls-5">
    <text class="cls-2" transform="translate(2011.6 1101.3) rotate(69.3)"><tspan x="0" y="0">U</tspan></text>
  </g>
  <g class="cls-5">
    <text class="cls-2" transform="translate(2014.5 1109.1) rotate(76.5)"><tspan x="0" y="0">P</tspan></text>
  </g>
</svg>